<mxfile host="app.diagrams.net" agent="Mozilla/5.0 (Macintosh; Intel Mac OS X 10_15_7) AppleWebKit/605.1.15 (KHTML, like Gecko) Version/17.5 Safari/605.1.15" version="24.7.10">
  <diagram name="Page-1" id="c5jP8hc9qv9p4bJPvDs9">
    <mxGraphModel dx="1155" dy="672" grid="1" gridSize="10" guides="1" tooltips="1" connect="1" arrows="1" fold="1" page="1" pageScale="1" pageWidth="827" pageHeight="1169" math="0" shadow="0">
      <root>
        <mxCell id="0" />
        <mxCell id="1" parent="0" />
        <mxCell id="sIQjRlm8cEmjDpu98lu_-2" value="Складання і тестування&lt;div&gt;комп&#39;ютерів&lt;/div&gt;" style="whiteSpace=wrap;html=1;align=center;labelBackgroundColor=none;" vertex="1" parent="1">
          <mxGeometry x="280" y="250" width="230" height="120" as="geometry" />
        </mxCell>
        <mxCell id="sIQjRlm8cEmjDpu98lu_-31" value="" style="endArrow=classic;html=1;rounded=0;entryX=0.191;entryY=0.008;entryDx=0;entryDy=0;entryPerimeter=0;" edge="1" parent="1" target="sIQjRlm8cEmjDpu98lu_-2">
          <mxGeometry width="50" height="50" relative="1" as="geometry">
            <mxPoint x="324" y="80" as="sourcePoint" />
            <mxPoint x="440" y="320" as="targetPoint" />
          </mxGeometry>
        </mxCell>
        <mxCell id="sIQjRlm8cEmjDpu98lu_-32" value="" style="endArrow=classic;html=1;rounded=0;entryX=0.191;entryY=0.008;entryDx=0;entryDy=0;entryPerimeter=0;" edge="1" parent="1">
          <mxGeometry width="50" height="50" relative="1" as="geometry">
            <mxPoint x="440" y="79" as="sourcePoint" />
            <mxPoint x="440" y="250" as="targetPoint" />
          </mxGeometry>
        </mxCell>
        <mxCell id="sIQjRlm8cEmjDpu98lu_-33" value="" style="endArrow=classic;html=1;rounded=0;" edge="1" parent="1">
          <mxGeometry width="50" height="50" relative="1" as="geometry">
            <mxPoint x="510" y="280" as="sourcePoint" />
            <mxPoint x="750" y="280" as="targetPoint" />
          </mxGeometry>
        </mxCell>
        <mxCell id="sIQjRlm8cEmjDpu98lu_-35" value="" style="endArrow=classic;html=1;rounded=0;" edge="1" parent="1">
          <mxGeometry width="50" height="50" relative="1" as="geometry">
            <mxPoint x="510" y="309.5" as="sourcePoint" />
            <mxPoint x="750" y="309.5" as="targetPoint" />
          </mxGeometry>
        </mxCell>
        <mxCell id="sIQjRlm8cEmjDpu98lu_-38" value="" style="endArrow=classic;html=1;rounded=0;" edge="1" parent="1">
          <mxGeometry width="50" height="50" relative="1" as="geometry">
            <mxPoint x="510" y="340" as="sourcePoint" />
            <mxPoint x="750" y="340" as="targetPoint" />
          </mxGeometry>
        </mxCell>
        <mxCell id="sIQjRlm8cEmjDpu98lu_-39" value="Замовлення клієнтів" style="text;html=1;align=center;verticalAlign=middle;whiteSpace=wrap;rounded=0;" vertex="1" parent="1">
          <mxGeometry x="240" y="100" width="90" height="70" as="geometry" />
        </mxCell>
        <mxCell id="sIQjRlm8cEmjDpu98lu_-40" value="Правила складання і тестування" style="text;html=1;align=center;verticalAlign=middle;whiteSpace=wrap;rounded=0;" vertex="1" parent="1">
          <mxGeometry x="430" y="120" width="110" height="30" as="geometry" />
        </mxCell>
        <mxCell id="sIQjRlm8cEmjDpu98lu_-41" value="Несправні компоненти" style="text;html=1;align=center;verticalAlign=middle;whiteSpace=wrap;rounded=0;" vertex="1" parent="1">
          <mxGeometry x="560" y="280" width="160" height="30" as="geometry" />
        </mxCell>
        <mxCell id="sIQjRlm8cEmjDpu98lu_-42" value="Готові комп&#39;ютери" style="text;html=1;align=center;verticalAlign=middle;whiteSpace=wrap;rounded=0;" vertex="1" parent="1">
          <mxGeometry x="555" y="310" width="170" height="30" as="geometry" />
        </mxCell>
        <mxCell id="sIQjRlm8cEmjDpu98lu_-43" value="Результати тестування" style="text;html=1;align=center;verticalAlign=middle;whiteSpace=wrap;rounded=0;" vertex="1" parent="1">
          <mxGeometry x="590" y="250" width="60" height="30" as="geometry" />
        </mxCell>
        <mxCell id="sIQjRlm8cEmjDpu98lu_-44" value="складання і" style="text;html=1;align=center;verticalAlign=middle;whiteSpace=wrap;rounded=0;" vertex="1" parent="1">
          <mxGeometry x="670" y="250" width="100" height="30" as="geometry" />
        </mxCell>
      </root>
    </mxGraphModel>
  </diagram>
</mxfile>
